<svg xmlns="http://www.w3.org/2000/svg" viewBox="0 0 77.64 77.64"><title>Ad_Hominem_Fallacy_Icon</title><g id="Layer_2" data-name="Layer 2"><g id="Black"><path d="M61,37.12H69A30.28,30.28,0,0,0,40.51,8.61v7.82H37.13V8.61A30.29,30.29,0,0,0,8.6,37.12h8v3.39h-8A30.29,30.29,0,0,0,37.13,69V60.75h3.38V69A30.3,30.3,0,0,0,69,40.51H61Zm-4.2,5.24c-.19.48-1.52.92-2.44,1.42-.71.4-.3,1.63-.3,1.63s.4.81.2,1a5.26,5.26,0,0,1-.71.51s.71.91.31,1.42-1.22,1.22-.82,1.72a2.51,2.51,0,0,1-.81,3.45c-2.57,1.45-6.52-.05-8.61,2.3A8.86,8.86,0,0,0,42.28,58H26.34a15.13,15.13,0,0,1,.82-3.68c.51-1.92,1.82-6-.41-9.33-.13-.2-.26-.38-.39-.55-1.63-2.08-3-2-3.46-10a13.48,13.48,0,0,1,4-10.71A15.27,15.27,0,0,1,37,19.64c5-.18,10.51.93,13.59,5.28A20.34,20.34,0,0,1,53.43,33c-.1.81-.59,1.44-.41,2.44.26,1.39,1.5,2.65,2.34,3.75C56.68,40.94,57.18,41.35,56.78,42.36Z"/><path d="M38.82,0A38.82,38.82,0,1,0,77.64,38.82,38.82,38.82,0,0,0,38.82,0Zm0,72.5A33.68,33.68,0,1,1,72.5,38.82,33.71,33.71,0,0,1,38.81,72.5Z"/></g></g></svg>