<svg xmlns="http://www.w3.org/2000/svg" viewBox="0 0 77.63 77.63"><title>Conspiracy_Theories_Fallacy_Icon</title><g id="Layer_2" data-name="Layer 2"><g id="Black"><path d="M38.82,0A38.82,38.82,0,0,0,18.94,72.16c.47-1.42,1.32-3.24,1.53-3.77,1-2.4,3.3-7.42,1-12.08a7.83,7.83,0,0,0-.43-.77c-1.64-2.76-3.3-3-3-11.54l6.12-1.17,6.42-2.68,6.26-.5,6.54.56,7.51-1.39,6.19.72a20.56,20.56,0,0,1,.63,5.56c-.27,1-1,1.77-.91,3.08.1,1.83,1.5,3.65,2.4,5.2,1.43,2.43,2,3,1.34,4.28-.32.59-2.11.93-3.36,1.44-1,.4-.65,2-.65,2s.39,1.1.1,1.34a6.89,6.89,0,0,1-1,.53s.78,1.29.17,1.88S54,66.28,54.48,67a3.28,3.28,0,0,1-1.6,4.31c-3.55,1.46-8.39-1.09-11.47,1.6-.66.58-1.59,3.3-2.23,4.72A38.82,38.82,0,0,0,38.82,0ZM55.49,6.39l-2.75,6,3.85.11-8.92,8.16,3.26-6.45-3.7-.32ZM23.65,13.13l1.21-3.52,5.28,9.83L25,15.33l-1,3.71L18.18,8.4ZM3.53,29.21l7.22.11L9.42,25.85,19.78,30l-6.61.17,1.6,3.51Zm46.77,7-6.91,1.37L36.86,37l-6.33.49-6.47,2.68L17,41.61c.07-.59,1.19-3.49,1.29-4.06l.19-4,2.82-2.12,1.66-4.24,3.89-1.56,2.86-2.9L34,20.24,35.64,16l.56-4.71L38,8.36l1.07,3.19,1.24,3.8L42,18.93l.63,2.6,4.69,1.26,3.16,3.1,4.43,2.23-.09,3.25,2.43,2.2.77,3.61Zm8.13-6,6-4.06-3.08-2.07L72.19,21.5l-5.32,3.94,3.32,1.95Z"/></g></g></svg>