<svg xmlns="http://www.w3.org/2000/svg" viewBox="0 0 77.36 77.36"><title>Nefarious_Intent_Fallacy_Icon</title><g id="Layer_2" data-name="Layer 2"><g id="Black"><path d="M38.68,0A38.68,38.68,0,1,0,77.36,38.68,38.68,38.68,0,0,0,38.68,0ZM64.83,42.85A26.15,26.15,0,1,1,16.51,29c-3.12-2.63-4.83-7.51-5-13.11a22.77,22.77,0,0,0,10.94,6.46,26.12,26.12,0,0,1,32.4,0,22.77,22.77,0,0,0,10.94-6.46c-.15,5.6-1.85,10.48-5,13.11A26,26,0,0,1,64.83,42.85Z"/><path d="M18.22,36.59a10.36,10.36,0,0,0-.07,1.12,9.07,9.07,0,0,0,9.17,9,9.18,9.18,0,0,0,8.24-5Z"/><path d="M60.31,36.59a8.32,8.32,0,0,1,.08,1.12,9.08,9.08,0,0,1-9.17,9,9.18,9.18,0,0,1-8.24-5Z"/></g></g></svg>