<svg xmlns="http://www.w3.org/2000/svg" viewBox="0 0 77.63 77.63"><title>Red_Herring_Fallacy_Icon</title><g id="Layer_2" data-name="Layer 2"><g id="Black"><path d="M23.44,31.94a2.14,2.14,0,1,0,2,2.14A2.05,2.05,0,0,0,23.44,31.94Z"/><path d="M38.82,0A38.82,38.82,0,1,0,77.63,38.82,38.82,38.82,0,0,0,38.82,0Zm27,50.55a.46.46,0,0,1-.28-.11L57,43.86s-29.58,18.62-45.75-2a.38.38,0,0,1-.06-.22c0-.16.09-.32.21-.32l5.85-1c.29,0,.52-.37.52-.81a.94.94,0,0,0-.32-.77l-5.3-3a.67.67,0,0,1-.17-.47.78.78,0,0,1,.1-.39s14-19.56,44.92-.59l8.5-6.57a.41.41,0,0,1,.28-.11c.35,0,.65.47.65,1a1.69,1.69,0,0,1-.09.54l-5,9.87,5,9.88a1.66,1.66,0,0,1,.09.52C66.43,50.08,66.13,50.55,65.78,50.55Z"/></g></g></svg>