<svg xmlns="http://www.w3.org/2000/svg" viewBox="0 0 79.31 79.31"><title>Anecdote_Fallacy_Icon</title><g id="Layer_2" data-name="Layer 2"><g id="Black"><path d="M39.65,0A39.66,39.66,0,1,0,79.31,39.65,39.65,39.65,0,0,0,39.65,0Zm2.57,52.05L30.83,67.59l2-16.16c-10.94-2.32-19-10.06-19-19.28,0-11,11.54-20,25.77-20s25.78,9,25.78,20C65.43,42.52,55.25,51.05,42.22,52.05Z"/><path d="M37.13,38.21H30.41V33.4a16.57,16.57,0,0,1,.51-4.61,7,7,0,0,1,1.9-3,9.67,9.67,0,0,1,3.54-2.11l1.32,2.78A5.57,5.57,0,0,0,34.8,28.3a5.45,5.45,0,0,0-.92,3.18h3.25Zm11.22,0H41.63V33.4a16.55,16.55,0,0,1,.51-4.62,6.86,6.86,0,0,1,1.92-3,9.71,9.71,0,0,1,3.53-2.11l1.31,2.78A5.57,5.57,0,0,0,46,28.3a5.52,5.52,0,0,0-.92,3.18h3.25Z"/></g></g></svg>