<svg xmlns="http://www.w3.org/2000/svg" viewBox="0 0 77.64 77.63"><title>Cherry_Picking_Fallacy_Icon</title><g id="Layer_2" data-name="Layer 2"><g id="Black"><path d="M38.82,0A38.82,38.82,0,1,0,77.64,38.82,38.82,38.82,0,0,0,38.82,0ZM59.67,23.67c-2.4.11-6.45.37-9,.53,3.15,4.59,5.42,9.45,3.42,15.09a23.68,23.68,0,0,1-6.34,9.56c2-.19,4.35.42,5.43,2.22,3,5-2.91,10.85-7.15,12.83a15.34,15.34,0,0,1-7.21,1.42A10.4,10.4,0,0,1,36.23,65c-1.55-.59-2.3-2.36-3.25-3.57-1.37-1.76-2.18-6.64-1.24-8.75a30.93,30.93,0,0,0,.75-3.32,12.35,12.35,0,0,1,1.83-3.62C38,40.45,43.91,42,46.75,47.08A24,24,0,0,0,50.68,42a15.22,15.22,0,0,0,1.2-12.3,12.49,12.49,0,0,0-1.52-3.44c-.41-.66-.8-1.47-1.17-2a25.85,25.85,0,0,0-3.49-.08A22.51,22.51,0,0,1,28.81,39.5c1.58.71,3.65,1.76,4,3.69.46,2.63-2.22,5.45-4.39,6.55-3.18,1.6-5.61,3-9.29,3-2.07,0-5-.67-6.45-2.2a7.65,7.65,0,0,1-2.26-5c-.77-5.41,3.07-12.28,8.1-14.32,4.5-1.83,9.19,1.09,9,6.2,9.32-.69,15.68-8.41,17.17-17.12,4.73,1.61,10.45.41,15-1.49Z"/></g></g></svg>