<svg xmlns="http://www.w3.org/2000/svg" viewBox="0 0 77.63 77.63"><title>Fake_Experts_Fallacy_Icon</title><g id="Layer_2" data-name="Layer 2"><g id="Black"><path d="M38.82,0A38.82,38.82,0,1,0,77.63,38.82,38.82,38.82,0,0,0,38.82,0ZM26.28,28.2a12.61,12.61,0,0,0,1.92,3.09L26.07,33a15.2,15.2,0,0,1-2.32-3.81Zm-3-1.51a29.91,29.91,0,0,1,.36-3.54l.09-.67,2.69.37-.1.68A30.74,30.74,0,0,0,26,26.71Zm3.27-6.2-2.69.29A26.31,26.31,0,0,0,23,17l2.61-.73A28.82,28.82,0,0,1,26.55,20.49ZM20.92,5.55a23,23,0,0,1,1.74,2.92L20.25,9.7a21.62,21.62,0,0,0-1.54-2.59ZM12,66.6l-.53-2.66a31,31,0,0,1,4.22-.46l.16,2.7A27.49,27.49,0,0,0,12,66.6ZM17.91,66l-.24-2.7a13.38,13.38,0,0,0,3.6-.73l1,2.53A16.57,16.57,0,0,1,17.91,66Zm3.17-54.58,2.48-1.08c.53,1.22,1,2.54,1.48,3.92l-2.57.84C22,13.84,21.58,12.61,21.08,11.46Zm3.25,52.59-1.56-2.21a1.63,1.63,0,0,0,.86-1.47,3.82,3.82,0,0,0-.08-.74l2.67-.47a7.11,7.11,0,0,1,.12,1.21A4.33,4.33,0,0,1,24.33,64.05Zm2.55-8.72a22.56,22.56,0,0,0-.81,2.39l-2.63-.65a24.54,24.54,0,0,1,.91-2.7c.17-.44.33-.87.46-1.25l2.56.88C27.23,54.4,27.06,54.86,26.88,55.33Zm1-3.62-2.69-.27c.13-1.39.16-3.22.17-3.94l2.7,0C28,48.27,28,50.2,27.85,51.71Zm.1-6.64c-.1,0-.14.29-.15.48l-2.7-.11a3.1,3.1,0,0,1,1.53-2.74c.62-.34,1.3-.66,2-1l1.19,2.43C29.12,44.47,28.48,44.77,28,45.07Zm1.28-8.16c-.3-.38-.64-.81-1-1.29s-.55-.7-.85-1.06l2.09-1.72c.32.39.63.77.91,1.14l1,1.26.65.83-2.15,1.65Zm4.16,4.65a3.68,3.68,0,0,1-1.67,1.64l-1.36-2.34a2.51,2.51,0,0,0,.54-.38,1.86,1.86,0,0,0,.15-.65,1.35,1.35,0,0,0-.19-.64L33.27,38a4,4,0,0,1,.49,1.87A4.57,4.57,0,0,1,33.39,41.56ZM61,66.58a15.64,15.64,0,0,1-6.72-1.46c-3.16-1.78-2.37-5.73-1.58-6.72s-.79-2.37-1.58-3.35.59-2.78.59-2.78a10.41,10.41,0,0,1-1.38-1c-.39-.4.4-2,.4-2s.79-2.38-.6-3.15c-1.77-1-4.36-1.84-4.74-2.77-.79-2,.2-2.77,2.77-6.12,1.64-2.14,4-4.61,4.54-7.31.35-1.94-.59-3.16-.79-4.74s2.17-11.06,5.53-15.8l0-.05A34.91,34.91,0,0,1,61,66.58Z"/></g></g></svg>