<svg xmlns="http://www.w3.org/2000/svg" viewBox="0 0 77.64 77.64"><title>False_Analogy_Fallacy_Icon</title><g id="Layer_2" data-name="Layer 2"><g id="Black"><path d="M58,39.59a.41.41,0,0,0,.42.41H69.1a.94.94,0,0,0,.94-.94.84.84,0,0,0,0-.27h0a12.09,12.09,0,0,0-2.87-6.94h0a.93.93,0,0,0-.73-.34.9.9,0,0,0-.57.2h0a.71.71,0,0,0-.15.15l-7.51,7.39A.44.44,0,0,0,58,39.59Z"/><path d="M53.55,41.74a.41.41,0,0,0-.41-.41H42.45a1,1,0,0,0-1,.94,1.17,1.17,0,0,0,0,.27h0a12.13,12.13,0,0,0,2.87,6.94h0a1,1,0,0,0,.73.34.91.91,0,0,0,.58-.2h0a.75.75,0,0,0,.16-.15l7.5-7.39A.41.41,0,0,0,53.55,41.74Z"/><path d="M54.37,43.05l-7.56,7.56a1,1,0,0,0,0,1.34l.22.16h0A12.06,12.06,0,0,0,54,55h0a.9.9,0,0,0,.75-.27.87.87,0,0,0,.27-.55h0a.81.81,0,0,0,0-.22l.09-10.53a.41.41,0,0,0-.12-.36A.42.42,0,0,0,54.37,43.05Z"/><path d="M41.8,39.65a.91.91,0,0,0,.55.26h.22L53.1,40a.41.41,0,0,0,.36-.12.42.42,0,0,0,0-.59L45.9,31.74a1,1,0,0,0-1.34,0,1.16,1.16,0,0,0-.16.21h0a12.17,12.17,0,0,0-2.88,6.94h0A1,1,0,0,0,41.8,39.65Z"/><path d="M46.74,30.56h0a.54.54,0,0,0,.15.15l7.39,7.51a.4.4,0,0,0,.33.17A.42.42,0,0,0,55,38V27.29a.94.94,0,0,0-.95-.94.75.75,0,0,0-.26,0h0a12,12,0,0,0-6.94,2.87h0a.94.94,0,0,0-.35.73,1,1,0,0,0,.2.57Z"/><path d="M69.75,41.68a.94.94,0,0,0-.55-.26H69l-10.53-.08a.42.42,0,0,0-.36.71l7.55,7.56a1,1,0,0,0,1.34,0,.82.82,0,0,0,.16-.22h0A12.1,12.1,0,0,0,70,42.44h0A1,1,0,0,0,69.75,41.68Z"/><path d="M57.18,38.28l7.55-7.56a.94.94,0,0,0,0-1.33.65.65,0,0,0-.21-.16h0a12.09,12.09,0,0,0-6.94-2.87h0a.93.93,0,0,0-.76.27,1,1,0,0,0-.27.55h0a.81.81,0,0,0,0,.22c0,3.51,0,7-.08,10.53a.41.41,0,0,0,.12.36A.42.42,0,0,0,57.18,38.28Z"/><path d="M38.81,0A38.82,38.82,0,1,0,77.64,38.82,38.82,38.82,0,0,0,38.81,0Zm-.49,51.45c-2,3.45-4.44,6-7,6.06-2.76.08-4.75-1.75-7.7-1.75-3.82,0-4.83,1.74-7.57,1.74-5.07,0-11.14-12.57-11.14-19.2,0-8.68,5.58-14.08,10.64-14.16,2.84-.05,3.38,1,6,1.43-.24-4.24-2.47-7.82-4.14-10.06l2.41-1.66a20.82,20.82,0,0,1,3.5,5.51,18.26,18.26,0,0,1,5.5-6.15c3.78-2.64,7.06-2.67,10.41-2.25a14.48,14.48,0,0,1-6,8.94,13.93,13.93,0,0,1-9,2.4,18.61,18.61,0,0,1,.35,3.38c3.24-.21,4.61-1.54,7.2-1.54a9.69,9.69,0,0,1,7.84,4,20.41,20.41,0,0,0-1.21,23.27ZM55.7,57.56A16.88,16.88,0,1,1,72.57,40.68,16.87,16.87,0,0,1,55.7,57.56Z"/><path d="M64.8,50.77h0a1.06,1.06,0,0,0-.15-.15q-3.71-3.75-7.39-7.51a.44.44,0,0,0-.34-.17.41.41,0,0,0-.41.42V54a.94.94,0,0,0,.94.94l.27,0h0a12.1,12.1,0,0,0,6.94-2.88h0a.92.92,0,0,0,.34-.72.91.91,0,0,0-.2-.58Z"/></g></g></svg>