<svg xmlns="http://www.w3.org/2000/svg" viewBox="0 0 77.36 77.36"><title>Overriding_Suspicion_Fallacy_Icon</title><g id="Layer_2" data-name="Layer 2"><g id="Black"><path d="M38.68,0A38.68,38.68,0,1,0,77.36,38.68,38.68,38.68,0,0,0,38.68,0Zm7.17,52.75a22.9,22.9,0,0,1-12.7-3.83L16.83,65.48l-5.41-5.34L27.58,43.75a23.07,23.07,0,1,1,18.27,9Z"/><path d="M45.85,11.83A17.83,17.83,0,1,0,63.68,29.66,17.84,17.84,0,0,0,45.85,11.83Zm.88,30.3A2.49,2.49,0,0,1,44,39.42a2.71,2.71,0,0,1,5.41,0A2.51,2.51,0,0,1,46.73,42.13Zm3.48-17.47-2,8.75h-3l-2-8.75V16.51h7Z"/></g></g></svg>