<svg xmlns="http://www.w3.org/2000/svg" viewBox="0 0 77.36 77.36"><title>Persecuted_Victim_Fallacy_Icon</title><g id="Layer_2" data-name="Layer 2"><g id="Black"><path d="M38.68,0A38.68,38.68,0,1,0,77.36,38.68,38.68,38.68,0,0,0,38.68,0ZM37.56,8.67a7.42,7.42,0,1,1-7.42,7.42A7.42,7.42,0,0,1,37.56,8.67ZM55.45,27.78,44.27,34.2,37.41,46.59,50.74,56.85a5.24,5.24,0,0,1-2.87,9.42l-.27,0v0H24.49a4.19,4.19,0,0,1,0-8.37h11l-9.36-5.23c-1.63-.88-2.64-4.83-2.07-6.55L29.3,29.66c.74-2,3.16-3.58,6.11-3.58,1.89,0,6.32-.07,9.56-1.39h0l5.77-2.35-3.6-10a3.73,3.73,0,0,1,0-.47,2.67,2.67,0,0,1,2.67-2.67,2.71,2.71,0,0,1,2.66,2.2l4.42,12.2c0,.15.08-.51.12-.33C57.32,25.15,56.5,27.14,55.45,27.78Z"/></g></g></svg>