<svg xmlns="http://www.w3.org/2000/svg" viewBox="0 0 79.31 79.31"><title>Single_Cause_Fallacy_Icon</title><g id="Layer_2" data-name="Layer 2"><g id="Black"><path d="M66.4,35.44v2.71h1.28c.85,0,1.8-.16,1.8-1.35s-1-1.36-1.8-1.36Z"/><path d="M70,42.31c0-1.3-1.18-1.52-2-1.52H66.4v3h1.68C68.93,43.79,70,43.65,70,42.31Z"/><polygon points="19.09 24.03 17.81 19.57 16.64 24.03 19.09 24.03"/><path d="M39.65,0A39.66,39.66,0,1,0,79.31,39.65,39.65,39.65,0,0,0,39.65,0ZM17.85,64.09c-2.82,0-5.84-2-5.84-6.36v-2a6.65,6.65,0,0,1,1.71-4.78,5.63,5.63,0,0,1,4.13-1.66A5.62,5.62,0,0,1,22,50.94a6.19,6.19,0,0,1,1.62,3.57H19.55A1.8,1.8,0,0,0,17.85,53C16.25,53,16,54.57,16,55.52v2.39c0,.57.14,2.47,1.84,2.47a1.84,1.84,0,0,0,1.7-1.56h4.08A5.65,5.65,0,0,1,17.85,64.09ZM20.34,28.9l-.46-1.74h-4L15.3,28.9H11.37l4.49-14.39h3.92l4.5,14.39ZM27.6,56.45l-.92-2.09,4.63-2,.92,2.09ZM31.31,25.4l-4.63-2,.92-2.08,4.63,2.05Zm3.24,28-.92-2.08,4.63-2.06.92,2.09Zm3.71-24.89-4.63-2.05.92-2.08,4.63,2Zm10.18,2,3.76,1.66,1.38-3.11,5.36,7.34-9,1,1.38-3.11-3.76-1.67ZM41.5,50.29l-.93-2.08,4.63-2.05.93,2.08Zm3.7-18.73-4.63-2,.93-2.09,4.63,2Zm8.38,17.1L52.2,45.55l-3.76,1.66-.92-2.08,3.76-1.66L49.9,40.35l9,1Zm14.79-1.81H62.81V32.46h5c4,0,5.35,2.13,5.35,4.21a2.5,2.5,0,0,1-1.56,2.64,3.28,3.28,0,0,1,2.21,3.18C73.84,44.6,72.44,46.85,68.37,46.85Z"/></g></g></svg>