<svg xmlns="http://www.w3.org/2000/svg" viewBox="0 0 77.63 77.63"><title>Slothful_Induction_Fallacy_Icon</title><g id="Layer_2" data-name="Layer 2"><g id="Black"><path d="M70.44,16.36,46.91,17.71a67.59,67.59,0,0,0-1.53,15.82c0,1,0,2,.13,3,2.25-4.87,7.06-7.44,12.6-7.44,7.7,0,14.59,5.28,14.59,13.29,0,3.5-1.87,7.15-3.85,9.66l0,0C64.73,58.14,57.6,63,49.57,65.94l-.82.29-.54.18-.62.2-.56.17-.61.19-.56.16-.69.18-.49.13q-.55.15-1.11.27l-.49.11-.71.16-.52.1-.7.13-.51.09-.77.12-.43.07-1.17.15-.3,0-.91.1-.43,0-.79,0-.45,0-.82,0h-.38L33,69c-.58,0-1.15,0-1.71,0-.21,0-.4,0-.61,0l-1-.07-.72-.08-.86-.1-.7-.11-.81-.13-.72-.15-.72-.16-.81-.22-.57-.15-.82-.28-.5-.16L21.64,67l-.48-.19-.76-.35-.43-.2-.73-.4-.4-.22c-.25-.14-.48-.3-.72-.45s-.24-.14-.35-.22-.48-.34-.71-.51l-.3-.21-.68-.56-.27-.22c-.24-.21-.47-.43-.7-.65l-.2-.18c-.23-.23-.44-.46-.66-.69l-.18-.19L13.45,61l-.16-.18c-.21-.26-.4-.53-.6-.8l-.13-.18q-.3-.42-.57-.87l-.11-.15c-.18-.3-.36-.61-.53-.92l-.09-.14c-.17-.32-.34-.64-.5-1,0-.05,0-.09-.07-.14-.17-.35-.33-.7-.48-1.06l0-.09c-.15-.36-.3-.73-.44-1.1l0-.08c-.14-.39-.28-.78-.41-1.18v0c-.13-.4-.25-.8-.36-1.21v0c-.12-.42-.22-.84-.32-1.26v0q-.15-.64-.27-1.29v0a46.16,46.16,0,0,1-.76-8.57,35.56,35.56,0,0,1,7-21.05l-9.77.57A38.81,38.81,0,1,0,77.63,38.82,38.61,38.61,0,0,0,70.44,16.36Z"/><path d="M28.42,35.74c.72,0,1.45,0,2.18,0A35.18,35.18,0,0,1,38.44,18.2L23.91,19a72,72,0,0,0-1.24,14.49c0,.85,0,1.7.09,2.53A49.92,49.92,0,0,1,28.42,35.74Z"/><path d="M55.88,37.55a.93.93,0,1,0-1.83-.3.94.94,0,0,0,.76,1.07A.93.93,0,0,0,55.88,37.55Z"/><path d="M62.21,44.24A2.29,2.29,0,0,1,63,41.1c1.16-.65,2.59-.35,3.65,1.12a17.92,17.92,0,0,1,1.82,3.5,1.27,1.27,0,0,1,.07-.12c1.91-4.25-.76-9.59-6-11.94-4.33-2-9-1.19-11.57,1.56A16.88,16.88,0,0,1,54.69,35c1.8.15,2.79,1.22,2.85,2.55a2.29,2.29,0,0,1-2.27,2.31,20.07,20.07,0,0,0-6.13.75c.28,3.34,2.71,6.69,6.54,8.41a11.1,11.1,0,0,0,8.92.29A22,22,0,0,0,62.21,44.24Z"/><path d="M63.87,42.52a.93.93,0,1,0,1.2,1.41.92.92,0,0,0,.1-1.31A.91.91,0,0,0,63.87,42.52Z"/><path d="M61.75,7.55a38.62,38.62,0,0,0-49.22,2.77Z"/></g></g></svg>