<svg xmlns="http://www.w3.org/2000/svg" viewBox="0 0 77.36 77.36"><title>Something_Wrong_Fallacy_Icon</title><g id="Layer_2" data-name="Layer 2"><g id="Black"><path d="M64.06,9.51a38.64,38.64,0,0,0-50.77,0Z"/><path d="M13.29,67.85a38.64,38.64,0,0,0,50.77,0Z"/><rect x="18.15" y="26.37" width="18.37" height="3.34"/><rect x="18.15" y="33.05" width="18.37" height="3.34"/><rect x="41.53" y="46.41" width="18.37" height="3.34"/><rect x="41.53" y="53.09" width="18.37" height="3.34"/><rect x="18.15" y="59.78" width="18.37" height="3.34"/><rect x="41.53" y="59.78" width="18.37" height="3.34"/><polygon points="59.9 19.76 59.9 13.85 18.15 13.85 18.15 23.03 55.3 23.03 59.9 19.76"/><polygon points="50.6 26.37 41.53 26.37 41.53 32.83 50.6 26.37"/><polygon points="41.53 43.08 59.9 43.08 59.9 41.41 59.9 39.73 59.9 30 41.53 43.08"/><path d="M13.14,53V9.64A38.66,38.66,0,0,0,5.46,58.49Z"/><path d="M10.5,65.15c.84.9,1.72,1.76,2.64,2.57V63.28Z"/><path d="M68.28,13.8a40.42,40.42,0,0,0-4.2-4.28v7.27Z"/><path d="M64.08,27V67.84a38.66,38.66,0,0,0,8.86-47.11Z"/><polygon points="31.82 39.73 18.15 39.73 18.15 43.08 27.13 43.08 31.82 39.73"/><polygon points="22.44 46.41 18.15 46.41 18.15 49.46 22.44 46.41"/><polygon points="32.15 49.76 36.52 49.76 36.52 46.64 32.15 49.76"/><polygon points="22.76 56.44 36.52 56.44 36.52 53.09 27.45 53.09 22.76 56.44"/></g></g></svg>