<svg xmlns="http://www.w3.org/2000/svg" viewBox="0 0 77.63 77.63"><title>Straw_Man_Fallacy_Icon</title><g id="Layer_2" data-name="Layer 2"><g id="Black"><path d="M38.82,0A38.82,38.82,0,1,0,77.63,38.82,38.82,38.82,0,0,0,38.82,0Zm15.1,68.87-10.8-6.79L37.9,69.79,34.26,63,23,68.27l2.61-8.66L15,59.58l9.56-6.15a18.51,18.51,0,0,0,14,6.7,18.53,18.53,0,0,0,14-6.74l10.28,6.3-12.44,0ZM32,39.69a3.25,3.25,0,0,0,3.25-3.24,3.13,3.13,0,0,0-.18-.87c1.24,0,2.5,0,3.78,0s2.35,0,3.5,0a3,3,0,0,0-.18.86,3.25,3.25,0,1,0,6.28-1.08c2.08-.1,4.08-.23,5.93-.4a22.52,22.52,0,0,1,.28,3.41c0,10.51-7.22,19-16.12,19s-16.12-8.52-16.12-19a22.06,22.06,0,0,1,.28-3.47c1.95.19,4.07.33,6.27.45a3.17,3.17,0,0,0,3,4.33Zm6.85-6.64C22,33.05,8.42,31,8.42,28.42c0-1.78,6.61-3.33,16.3-4.1,3.7-13,7.83-16.48,13.22-16.48S48.86,10,53.1,24.34c9.58.78,16.1,2.31,16.1,4.08C69.2,31,55.6,33.05,38.81,33.05Z"/><path d="M38.5,40c1.55,0,2.8.78,2.8,2S40,48.88,38.51,48.88c-1.67,0-2.81-5.58-2.81-6.83S37,40,38.5,40Z"/><rect x="32.5" y="51.18" width="12" height="1.6"/></g></g></svg>