<?xml version="1.0" encoding="UTF-8"?>
<!-- Generator: Adobe Illustrator 24.1.3, SVG Export Plug-In . SVG Version: 6.00 Build 0)  -->
<svg version="1.1" id="Layer_1" xmlns="http://www.w3.org/2000/svg" xmlns:xlink="http://www.w3.org/1999/xlink" x="0px" y="0px" viewBox="0 0 1080 1080" style="enable-background:new 0 0 1080 1080;" xml:space="preserve">
<style type="text/css">
	
		.st0{clip-path:url(#SVGID_2_);fill:#75BBE7;stroke:#000000;stroke-width:1.6515;stroke-linecap:round;stroke-linejoin:round;stroke-miterlimit:10;}
	
		.st1{clip-path:url(#SVGID_2_);fill:url(#Head_1_);stroke:#000000;stroke-width:1.6515;stroke-linecap:round;stroke-linejoin:round;stroke-miterlimit:10;}
	.st2{clip-path:url(#SVGID_2_);fill:#75BBE7;}
	
		.st3{clip-path:url(#SVGID_2_);fill:#FFFFFF;stroke:#000000;stroke-width:1.7558;stroke-linecap:round;stroke-linejoin:round;stroke-miterlimit:10;}
	.st4{clip-path:url(#SVGID_2_);}
	
		.st5{clip-path:url(#SVGID_2_);fill:#82765B;stroke:#000000;stroke-width:1.6515;stroke-linecap:round;stroke-linejoin:round;stroke-miterlimit:10;}
	.st6{clip-path:url(#SVGID_2_);fill:#F2BD8C;}
	.st7{clip-path:url(#SVGID_2_);fill:none;stroke:#000000;stroke-width:1.6515;stroke-linecap:round;stroke-miterlimit:10;}
	
		.st8{clip-path:url(#SVGID_2_);fill:#3158A6;stroke:#000000;stroke-width:1.6515;stroke-linecap:round;stroke-linejoin:round;stroke-miterlimit:10;}
	
		.st9{clip-path:url(#SVGID_2_);fill:none;stroke:#000000;stroke-width:1.6515;stroke-linecap:round;stroke-linejoin:round;stroke-miterlimit:10;}
	.st10{clip-path:url(#SVGID_2_);fill:none;stroke:#000000;stroke-width:1.3133;stroke-linecap:round;stroke-miterlimit:10;}
	.st11{clip-path:url(#SVGID_2_);fill:none;stroke:#000000;stroke-width:1.2386;stroke-linecap:round;stroke-miterlimit:10;}
	
		.st12{clip-path:url(#SVGID_2_);fill:#82765B;stroke:#000000;stroke-width:1.6953;stroke-linecap:round;stroke-linejoin:round;stroke-miterlimit:10;}
	
		.st13{clip-path:url(#SVGID_2_);fill:#82765B;stroke:#000000;stroke-width:1.8185;stroke-linecap:round;stroke-linejoin:round;stroke-miterlimit:10;}
	.st14{fill:#ABA9AE;stroke:#000000;stroke-width:1.8279;stroke-linecap:round;stroke-linejoin:round;stroke-miterlimit:10;}
	.st15{fill:none;stroke:#C9C6C8;stroke-width:1.0967;stroke-linecap:round;stroke-linejoin:round;stroke-miterlimit:10;}
	.st16{fill:#FFFFFF;stroke:#000000;stroke-width:1.6515;stroke-linecap:round;stroke-linejoin:round;stroke-miterlimit:10;}
	.st17{fill:none;stroke:#000000;stroke-width:1.6515;stroke-linecap:round;stroke-linejoin:round;stroke-miterlimit:10;}
	.st18{fill:#F2BD8C;stroke:#000000;stroke-width:1.8542;stroke-linecap:round;stroke-linejoin:round;stroke-miterlimit:10;}
	.st19{clip-path:url(#SVGID_2_);fill:url(#Nose_1_);}
	.st20{fill:#219BD2;}
	.st21{fill:#79CEDC;}
	.st22{opacity:0.2;clip-path:url(#SVGID_2_);}
	.st23{fill:none;stroke:#FF0000;stroke-width:0.2;stroke-linecap:round;stroke-linejoin:round;stroke-miterlimit:10;}
</style>
<g>
	<defs>
		<circle id="SVGID_1_" cx="539.9" cy="540.9" r="75.2"/>
	</defs>
	<clipPath id="SVGID_2_">
		<use xlink:href="#SVGID_1_" style="overflow:visible;"/>
	</clipPath>
	<path class="st0" d="M579.2,606c-3.3-9.4-9.2-17.5-19-18.7l1.2,26.7C567.6,612.1,573.6,609.4,579.2,606z"/>
	<path class="st0" d="M510.6,611.1l3-22.6c-6.9,1.6-11.7,8.8-15,16.2C502.3,607.1,506.4,609.3,510.6,611.1z"/>
	<linearGradient id="Head_1_" gradientUnits="userSpaceOnUse" x1="540.0688" y1="604.5778" x2="540.0688" y2="478.0716">
		<stop offset="0" style="stop-color:#FF7D88"/>
		<stop offset="0.7203" style="stop-color:#F2BD8C"/>
		<stop offset="1" style="stop-color:#F2BD8C"/>
	</linearGradient>
	<path id="Head_16_" class="st1" d="M514.6,533.1c-3.1,13.1,0,46.6,1.2,51.8c1,8.2,11.8,19.7,19.2,19.7c4,0,22.4-13.8,24.8-23.9   c3.6-12.9,7.5-42.2,7-48.7c-2.2-29.3-1.9-53.7-23.1-53.9c-13.4-0.2-21,8.3-23.5,20.1C518.2,508,517.5,520.4,514.6,533.1z"/>
	<path class="st2" d="M539.9,616c9.8,0,19.1-1.9,27.7-5.3c0-0.8-1.7-1.2-1.8-1.9c-0.2-1.7-1.9-17.6-2.4-22.5c0,0-3.4-5.8-3.4-5.9   c-2.9,4-8.6,11.1-19.9,13.4c-2,1.7-3,3.2-4.5,6.3c-1.6-2.6-3.1-4.8-4.8-6.9c-11.5-5.4-12.1-4.7-15-8.6c-4,6.4-7.8,20.5-8.1,22   c-0.1,0.5-0.2,1.2-0.4,1.9C517.1,613.3,528.2,616,539.9,616z"/>
	<ellipse id="Eye_Right_30_" class="st3" cx="550.5" cy="526.1" rx="7.4" ry="5.6"/>
	<ellipse id="Pupil_Right_30_" class="st4" cx="551.5" cy="526.4" rx="2" ry="2.5"/>
	<path id="Hair_Left_16_" class="st5" d="M513.1,521.6c1.1,2.5,3.6,3.6,6.4,0.2c3.6-4.5,4.7-14.5,0.7-13c0.7-2.7,3.7-10.9,0.2-11.2   c-2.6-0.2-4,5.9-4.5,9.8C511.8,503.4,511.1,517,513.1,521.6z"/>
	<path id="Ear_Left_16_" class="st6" d="M518.7,523.7c0,0.2-0.1,5.9-0.1,6.1c-0.7,2.2-2.1,3.8-3.7,3.7c-2.1-0.1-3.7-3.1-3.5-6.8   c0.2-3.6,2.1-6.5,4.2-6.4C517,520.4,518.1,521.8,518.7,523.7"/>
	<path id="Ear_Left_Outline_15_" class="st7" d="M518.7,529.4c-0.7,2.5-2.1,4.1-3.8,4c-2.1-0.1-3.7-3.1-3.5-6.8   c0.2-3.6,2.1-6.5,4.2-6.4c1.4,0.1,2.5,1.4,3.1,3.3"/>
	<path id="Hair_Right_16_" class="st5" d="M570.7,521.2c-1.2,3-3.6,5.5-6.3,1.6c-3.6-5.1-5.9-20.2-1.2-16.6   c-0.6-3.1-2.8-10.6,0.7-11.1c2.6-0.4,4.2,5.5,4.6,10.2C573.7,500.1,572.9,515.7,570.7,521.2z"/>
	<path id="Ear_Right_15_" class="st6" d="M564.4,523.7c0,0.2-0.6,6.3-0.6,6.4c0.6,2.5,1.9,4.2,3.6,4.4c2.3,0.1,4.5-2.9,4.6-6.8   c0.2-3.9-1.6-7.1-3.9-7.3C566.8,520.4,565.4,521.7,564.4,523.7"/>
	<path id="Ear_Right_Outline_15_" class="st7" d="M563.8,529.8c0.5,2.6,1.9,4.6,3.7,4.7c2.3,0.1,4.5-2.9,4.6-6.8s-1.6-7.1-3.9-7.3   c-1.5-0.1-2.9,1.2-3.8,3.1"/>
	<path id="Tie1_15_" class="st8" d="M545.5,601.4c3.5-1.8,1.3-7-2.1-5.1c-3.4,1.9-6.8,6-8.3,10.7c-1.1,3.1,1,8.8,2.6,4.8   C539.4,607.6,541.4,603.5,545.5,601.4z"/>
	<path id="Tie2_15_" class="st8" d="M524.6,599.5c-3.3-2.1-0.9-6.8,2.5-4.9c3.4,1.9,7,8.8,7.1,12.2c0.1,3.2-2.7,9.7-3.3,5.4   C530.3,607.2,528,601.5,524.6,599.5z"/>
	<path id="Collar_Left_15_" class="st0" d="M526.2,604c-0.1-4.6,0.2-8,4.5-10.6c-11.5-5.4-12-4.8-14.9-8.8c-0.9,1.7-5.6,4.2-3.1,8.5   C515.1,597,524.1,598.4,526.2,604z"/>
	<path id="Collar_Right_15_" class="st0" d="M545.5,604.7c-0.6-4.8-2.9-8.4-5.6-10.7c8.2-1.2,17.5-8.5,19.8-13.6   c2.8,2,4.5,6.7,2.6,9.5C557.8,596.4,548.7,596.8,545.5,604.7z"/>
	<path id="Neckline_15_" class="st9" d="M539.8,594.1c-2.1,1.2-3.3,4-4.4,6.4c-1.2-2.6-2.9-5-4.8-7"/>
	<path id="Wrinkle_Left_15_" class="st10" d="M528.6,492.6c2.1,0.8,1.9,2.5,4.8,3.7c1.9,0.7,1.8,3.2,4.8,3.8"/>
	<path id="Wrinkle_Right_15_" class="st11" d="M555.3,492.8c-3.3,1.2-2.5,3.4-5.3,4.2c-2.2,0.6-3.2,3.5-5.6,3.6"/>
	<path id="Wrinkle_Middle_15_" class="st11" d="M533.3,488.1c2.4-0.9,5.2,4.8,7.2,3.9c2.3-1.1,3.9,1,5.5,0.2   c2.5-1.2,3.9-2.2,6.1-3.3"/>
	<path id="Wrinkle_Top_15_" class="st11" d="M539.1,483.4c2.3-0.8,3.2,3,5.3,2c1.8-0.8,2.3-0.9,4.9-1.5"/>
	<path class="st8" d="M536.8,616c0.7-1,1.3-2.3,1.4-4.1c0.3-3.7-1.2-6.1-3.3-6.4c-2.1-0.2-4,1.8-4.4,5.6c-0.2,1.8,0.1,3.3,0.7,4.4   C533,615.7,534.9,615.9,536.8,616z"/>
	<ellipse id="Eye_Right_29_" class="st3" cx="529.4" cy="526.1" rx="7.4" ry="5.6"/>
	<ellipse id="Pupil_Right_29_" class="st4" cx="528.5" cy="526.4" rx="2" ry="2.5"/>
	<path id="Eyebrow_Left_23_" class="st12" d="M525.2,499c3.7,2.4,2.7,5.5,3.6,10.9c1.6,9.7,8.2,10.6,9.1,2.7   c-3.5,4.2-5.4-0.2-5.7-3.8C531.9,503.5,529,498.7,525.2,499z"/>
	<path id="Eyebrow_Left_22_" class="st13" d="M549.1,508.2c-0.3,3.9-2.2,8.6-6,3.9c1.1,8.6,8,8,9.7-2.4c1-5.8,0.8-8.6,4.7-11   C553.5,498.1,549.6,502.5,549.1,508.2z"/>
	<g class="st4">
		<path class="st14" d="M568.7,491.4l-5.2-2.6l-2.3-5.7l-10.8-4.4l-0.9-6l-4.5-6.5l0.1-1.3c-1.9-0.1-3.8-0.2-5.7-0.2    c-0.8,0-1.7,0-2.5,0.1l0.4,2.2l-2.2,9.4l-9,3.6l-4.3,8.1l-6.1,3.8l-0.4,8l-4.1,7.1l4.1,4.2l6.6-0.7l4.1,3.8l7.9-2.6l10.7,3.2    l9.8-6.2l8,1.1l10-6.1l-2.9-5.2L568.7,491.4z"/>
		<polyline class="st15" points="542.3,467.6 544.4,473.7 542.2,475.3   "/>
		<polyline class="st15" points="538.7,477.8 538.1,483.8 531.5,486.2   "/>
		<polyline class="st15" points="548.1,484 549.4,490.3 557.6,489.6   "/>
		<polyline class="st15" points="538.6,494.7 544.3,495.1 546.5,500.9   "/>
		<polyline class="st15" points="562.5,497.3 557.6,500.1 558.5,504.9   "/>
		<polyline class="st15" points="532.6,506.9 538.6,503.7 541.9,507.2   "/>
		<polyline class="st15" points="525.3,493.5 526.7,499.8 530.7,501.5   "/>
		<line class="st15" x1="535.1" y1="484.9" x2="535.5" y2="488.1"/>
		<line class="st15" x1="553.4" y1="490" x2="554" y2="492.2"/>
		<line class="st15" x1="521.1" y1="504.6" x2="526.6" y2="500"/>
	</g>
	<g class="st4">
		<path class="st16" d="M551.1,571.4c0,5.9-6.4,4.2-13.8,4.2s-13.4,0.6-13.4-5.3s5.5-10,12.8-10C544,560.4,551.1,565.5,551.1,571.4z    "/>
		<line class="st17" x1="528.3" y1="562.9" x2="529.4" y2="575"/>
		<line class="st17" x1="533.4" y1="561" x2="534.6" y2="575.6"/>
		<line class="st17" x1="538.5" y1="560.7" x2="540.1" y2="575.5"/>
		<line class="st17" x1="544.8" y1="562.8" x2="546" y2="575.2"/>
	</g>
	<g class="st4">
		<path class="st18" d="M483.8,562.8c-1.1,7.1-1,19.4-0.4,29.1c5.6,6.6,12.3,12.2,19.9,16.6c-2.6-12.2-6.9-36.5-4.3-46.5    c6.3-0.6,12.8-7.2,8.3-11.9c0,0-5.2-6.1-11.9-5c-1.1-4-9.3-3.6-9.3,1.6C479,544.8,476.6,556.7,483.8,562.8z"/>
		<path id="Finger_3_17_" class="st18" d="M479.4,556.4c-2.4-0.7-3.4-4.7-2.3-9.1c1.3-4.4,3.7-6.5,6.1-5.8c2.4,0.7,3.9,3.8,2.7,8.2    C484.8,554.2,481.9,557.1,479.4,556.4z"/>
		<path id="Finger_2_11_" class="st18" d="M487.9,556.6c-2.6-0.7-3.8-4.5-2.6-8.9c1.3-4.6,4.6-6.9,7.1-6.1c2.6,0.7,3.5,4.2,2.2,8.8    C493.4,554.8,490.5,557.3,487.9,556.6z"/>
		<path class="st18" d="M503.3,546.4c-0.3,5.3-3.3,9.2-6.5,8.6c-2.5-0.4-3.7-3.6-2.5-8s5.7-6.8,8.1-6.1s5.2,2.7,4.8,8.8"/>
		<path class="st18" d="M502.2,555.6c-3.2,0.9-13.3,0.7-13.2-3c0.1-2.9,3.8-5.1,9.3-5.3c5.5-0.2,7.5,1.1,9.8,3.9"/>
	</g>
	<path id="Moustache_16_" class="st5" d="M517.5,549.1c-0.3,3.9-0.9,14.1,1.9,19.2c1.5-0.9,2.4-3.6,3.8-4.5c1.4,0.8,2.7,3.7,4.1,4.8   c1.5-1.1,2-4,3.2-5.1c1.2,1.3,1.7,3.2,3.4,4.6c1.5-1.2,2.4-3.5,3.6-5c1.2,1.2,1.2,4.5,2.9,6c1.5-1.2,2.6-3.8,4.1-5.3   c1.6,1.6,1.2,4.5,3.1,5.9c1.9-1.5,2.4-3.8,4.3-5.2c1.6,1.5,2.3,3.6,4,5c1.4-1.4,3.9-12.5,3.4-19.5c-0.2-3.6-3.6-6-6.1-6.6   c-6.1-1.3-20.5-1.7-28.6-1C522.1,542.6,518,543.6,517.5,549.1z"/>
	<linearGradient id="Nose_1_" gradientUnits="userSpaceOnUse" x1="537.0273" y1="575.1819" x2="537.0273" y2="520.0217">
		<stop offset="0" style="stop-color:#FF7D88"/>
		<stop offset="1" style="stop-color:#F2BD8C"/>
	</linearGradient>
	<path id="Nose_16_" class="st19" d="M545.8,536.2c1.3,4,2.4,12.1,2.5,16.7c0.2,13.2-4.6,22.4-11.7,22.3c-8.5-0.1-11-8.9-10.7-25.4   c0.2-9.4,6.8-24.4,9.9-29.7l0,0c1.2,2,10.2,16.8,10.2,17c1.2,4.1,2.1,11.6,2.3,15.9"/>
	<path id="Nose_Outline_15_" class="st7" d="M545.8,536.2c1.3,4,2.4,12.1,2.5,16.7c0.2,13.2-4.6,22.4-11.7,22.3   c-8.5-0.1-11-8.9-10.7-25.4c0.2-9.4,6.8-24.4,9.9-29.7"/>
	<g class="st4">
		<path class="st20" d="M520.3,575c0.1,0.4,0,0.9,0.2,1.3c0.2,0.7,0.5,1.4,0.9,2.1c0.5,0.9,0.7,1.8,0.3,2.7    c-0.4,0.9-1.5,1.5-2.4,1.5c-0.3,0-0.5-0.2-0.6-0.5c-0.3-0.6-0.7-1.2-0.6-1.9c0-0.3,0-0.6,0.1-0.9c0.3-1.2,0.5-2.4,0.8-3.6    c0.1-0.5,0.2-0.9,0.4-1.4c0.1-0.2,0.2-0.4,0.4-0.5c0.3-0.2,0.7-0.1,0.7,0.3c0,0.3,0,0.6,0,0.9C520.3,575,520.3,575,520.3,575z     M519.5,576.9c0,0.4,0,0.6-0.1,0.7c-0.1,0.6-0.3,1.2-0.4,1.8c-0.1,0.5,0,1,0.1,1.4c0.2,0.7,0.8,0.7,1.2,0.2    c0.4-0.5,0.6-1.1,0.3-1.7C520.3,578.6,519.9,577.8,519.5,576.9z"/>
		<path class="st21" d="M519.5,576.9c0.4,0.9,0.8,1.7,1.1,2.5c0.3,0.6,0.1,1.2-0.3,1.7c-0.4,0.5-1,0.5-1.2-0.2    c-0.1-0.4-0.2-0.9-0.1-1.4c0.2-0.6,0.3-1.2,0.4-1.8C519.5,577.5,519.5,577.3,519.5,576.9z"/>
	</g>
	<g class="st22">
		<path class="st23" d="M544,524.6c0,0,1.1,1,1.1,1.1c0,0,1.5-0.1,1.5-0.1s0.8,0.7,0.8,0.7"/>
		<polyline class="st23" points="544,528 545,527.4 546.4,527.4   "/>
		<path class="st23" d="M545.7,522.6c0,0,0.5,1,0.5,1c0,0,1.1,0.1,1.1,0.1"/>
		<polyline class="st23" points="551.8,531.7 551.9,530.8 551.1,530.3   "/>
		<line class="st23" x1="550.9" y1="521.2" x2="551.2" y2="522.2"/>
		<line class="st23" x1="553.3" y1="521.5" x2="552.8" y2="522.6"/>
		<line class="st23" x1="557.3" y1="525.1" x2="555.2" y2="525.3"/>
		<line class="st23" x1="557.3" y1="527.5" x2="555.1" y2="526.7"/>
		<line class="st23" x1="553.2" y1="530.1" x2="554" y2="531.1"/>
		<polyline class="st23" points="548.5,531.5 548.7,530.5 549.6,530.1   "/>
		<line class="st23" x1="546.7" y1="525.5" x2="547.8" y2="525.1"/>
		<path class="st23" d="M547.7,521.5c0,0,0.5,0.6,0.5,0.7c0,0,0.7,0.2,0.7,0.2l-0.2,1.1"/>
		<line class="st23" x1="549" y1="522.4" x2="549.7" y2="522.9"/>
		<path class="st23" d="M555.7,522.9c0,0-0.4,0.6-0.4,0.6l-1.3-0.2"/>
		<line class="st23" x1="555.3" y1="523.5" x2="554.7" y2="524.2"/>
		<path class="st23" d="M556.2,529.7c0,0-1-0.4-1-0.4l-0.4-1.1"/>
		<line class="st23" x1="555.3" y1="529.3" x2="554.3" y2="529.2"/>
		<path class="st23" d="M545.6,529.9c0,0,1-0.7,1-0.7s0.5-0.9,0.5-0.9c0,0,1.1-0.3,1.1-0.3"/>
		<line class="st23" x1="546.7" y1="529.2" x2="547.9" y2="529.3"/>
	</g>
	<g class="st22">
		<line class="st23" x1="529.8" y1="531.3" x2="529.3" y2="530.3"/>
		<path class="st23" d="M527.7,522.6c0,0,0.4-1,0.4-1c0,0-0.1-0.5-0.1-0.5"/>
		<path class="st23" d="M533,524.6c0,0-0.3,0-0.3,0c0,0-1,0-1,0"/>
		<path class="st23" d="M531.4,523.3c0,0,1-0.8,1-0.8c0,0,1.2,0,1.2,0"/>
		<line class="st23" x1="525.1" y1="525.2" x2="523" y2="524.6"/>
		<line class="st23" x1="525" y1="526.8" x2="522.8" y2="527.4"/>
		<line class="st23" x1="527.4" y1="530.2" x2="527.1" y2="531.2"/>
		<path class="st23" d="M525.1,522.1c0,0,0.1,0.8,0.1,0.8l1.2,0.1"/>
		<line class="st23" x1="525.2" y1="523" x2="525.5" y2="523.8"/>
		<line class="st23" x1="525.1" y1="529.7" x2="525.3" y2="528.6"/>
		<line class="st23" x1="524.4" y1="529.9" x2="526" y2="529.4"/>
		<path class="st23" d="M530.7,520.8c0,0-0.9,0.6-0.9,0.6c0,0-0.2,1.1-0.2,1.1"/>
		<line class="st23" x1="530.7" y1="520.8" x2="530.9" y2="522"/>
	</g>
</g>
</svg>